<svg xmlns="http://www.w3.org/2000/svg" viewBox="0 0 100 100" role="img" aria-label="Territory Pattern Sea">
  <title>Territory Pattern Sea</title>
  <defs>
    <filter id="roughen">
      <feTurbulence type="fractalNoise" baseFrequency="0.85" numOctaves="2" result="noise"/>
      <feDisplacementMap in="SourceGraphic" in2="noise" scale="0.6"/>
    </filter>
  </defs>

  <g fill="none" stroke="#111111" stroke-linecap="round" opacity="0.35">
    <path d="M0 20 C12 14, 24 14, 36 20 C48 26, 60 26, 72 20 C84 14, 96 14, 108 20" stroke-width="2"/>
    <path d="M-8 45 C4 39, 16 39, 28 45 C40 51, 52 51, 64 45 C76 39, 88 39, 100 45" stroke-width="2"/>
    <path d="M0 70 C12 64, 24 64, 36 70 C48 76, 60 76, 72 70 C84 64, 96 64, 108 70" stroke-width="2"/>
  </g>

</svg>
