<svg xmlns="http://www.w3.org/2000/svg" viewBox="0 0 100 100" role="img" aria-label="Tentacle Corner bottom_left">
  <title>Tentacle Corner bottom_left</title>
  <defs>
    <filter id="roughen">
      <feTurbulence type="fractalNoise" baseFrequency="0.85" numOctaves="2" result="noise"/>
      <feDisplacementMap in="SourceGraphic" in2="noise" scale="0.6"/>
    </filter>
  </defs>

  <g transform="translate(0 100) scale(1 -1)" fill="none" stroke="#111111" stroke-linecap="round" stroke-linejoin="round" filter="url(#roughen)">
    <path d="M0 95 C18 78, 22 60, 18 43 C15 29, 24 18, 38 19 C53 21, 55 38, 44 46 C37 51, 28 52, 24 60" stroke-width="7"/>
    <path d="M0 76 C19 64, 38 65, 52 74 C64 81, 80 77, 86 64 C93 48, 75 37, 63 49 C57 55, 55 64, 58 72" stroke-width="6"/>
    <path d="M0 58 C16 50, 25 38, 26 26 C27 11, 41 5, 53 13" stroke-width="5"/>
    <circle cx="31" cy="42" r="2" fill="#8B1E24" stroke="none"/>
    <circle cx="46" cy="69" r="2" fill="#8B1E24" stroke="none"/>
  </g>

</svg>
